<?xml version="1.0" standalone="no"?><!DOCTYPE svg PUBLIC "-//W3C//DTD SVG 1.1//EN" "http://www.w3.org/Graphics/SVG/1.1/DTD/svg11.dtd"><svg t="1543931057369" class="icon" style="" viewBox="0 0 1024 1024" version="1.1" xmlns="http://www.w3.org/2000/svg" p-id="19926" xmlns:xlink="http://www.w3.org/1999/xlink" width="16" height="16"><defs><style type="text/css"></style></defs><path d="M512 960.5c-60.5 0-119.3-11.9-174.6-35.3-53.4-22.6-101.4-54.9-142.5-96.1-41.2-41.1-73.5-89.1-96.1-142.5C75.4 631.3 63.5 572.5 63.5 512s11.9-119.3 35.3-174.6c22.6-53.4 54.9-101.4 96.1-142.6 41.2-41.2 89.1-73.5 142.6-96.1 55.2-23.3 114-35.2 174.5-35.2s119.3 11.9 174.6 35.3c53.4 22.6 101.4 54.9 142.6 96.1 41.2 41.2 73.5 89.1 96.1 142.6 23.4 55.3 35.3 114.1 35.3 174.6s-11.9 119.3-35.3 174.6c-22.7 53.3-55 101.3-96.2 142.4-41.2 41.2-89.1 73.5-142.6 96.1-55.2 23.4-114 35.3-174.5 35.3z m0-832c-211.5 0-383.5 172-383.5 383.5s172 383.5 383.5 383.5 383.5-172 383.5-383.5-172-383.5-383.5-383.5z" fill="#ffffff" p-id="19927"></path><path d="M512 928.5c-56.2 0-110.8-11-162.1-32.7-49.6-21-94.1-51-132.4-89.3-38.3-38.3-68.3-82.8-89.3-132.4-21.7-51.3-32.7-105.9-32.7-162.1 0-56.2 11-110.8 32.7-162.1 21-49.6 51-94.1 89.3-132.4 38.3-38.3 82.8-68.3 132.4-89.3 51.3-21.7 105.9-32.7 162.1-32.7 56.2 0 110.8 11 162.1 32.7 49.6 21 94.1 51 132.4 89.3 38.3 38.3 68.3 82.8 89.3 132.4 21.7 51.3 32.7 105.9 32.7 162.1 0 56.2-11 110.8-32.7 162.1-21 49.6-51 94.1-89.3 132.4-38.3 38.3-82.8 68.3-132.4 89.3-51.3 21.7-105.9 32.7-162.1 32.7z m0-832C282.9 96.5 96.5 282.9 96.5 512S282.9 927.5 512 927.5 927.5 741.1 927.5 512 741.1 96.5 512 96.5z" fill="#ffffff" p-id="19928"></path><path d="M738.3 353.6c-12.5-12.4-32.9-12.4-45.3 0L444.2 602.5 331 489.3c-12.5-12.4-32.9-12.4-45.3 0-12.4 12.5-12.4 32.9 0 45.3l135.8 135.8c6.2 6.2 14.4 9.3 22.6 9.3 8.2 0 16.4-3.1 22.7-9.3l271.5-271.5c12.4-12.5 12.4-32.8 0-45.3z" fill="#ffffff" p-id="19929"></path></svg>