<?xml version="1.0" standalone="no"?><!DOCTYPE svg PUBLIC "-//W3C//DTD SVG 1.1//EN"
        "http://www.w3.org/Graphics/SVG/1.1/DTD/svg11.dtd">
<svg t="1543993249163" class="icon" style="" viewBox="0 0 1024 1024" version="1.1" xmlns="http://www.w3.org/2000/svg"
     p-id="1747" xmlns:xlink="http://www.w3.org/1999/xlink" width="16" height="16">
    <defs>
        <style type="text/css"></style>
    </defs>
    <path d="M509.574 6.475c-279.542 0-506.98 227.439-506.98 506.98s227.438 506.981 506.98 506.981 506.98-227.438 506.98-506.98S789.133 6.476 509.574 6.476z m448.903 506.98c0 247.518-201.37 448.904-448.903 448.904S60.687 760.99 60.687 513.456 262.057 64.569 509.574 64.569s448.903 201.37 448.903 448.887z"
          fill="#1afa29" p-id="1748"></path>
    <path d="M809.663 282.888a28.679 28.679 0 0 0-20.263-8.081 28.762 28.762 0 0 0-20.296 8.081l-408.713 408.68-135.295-135.295a28.679 28.679 0 0 0-40.575 40.542l155.474 155.49c11.076 11.127 30.117 10.525 40.792 0L809.663 323.43a28.695 28.695 0 0 0 0-40.542z"
          fill="#1afa29" p-id="1749"></path>
</svg>