<?xml version="1.0" encoding="utf-8"?>
<!-- Generator: Adobe Illustrator 16.0.0, SVG Export Plug-In . SVG Version: 6.00 Build 0)  -->
<!DOCTYPE svg PUBLIC "-//W3C//DTD SVG 1.1//EN" "http://www.w3.org/Graphics/SVG/1.1/DTD/svg11.dtd">
<svg version="1.1" id="图层_1" xmlns="http://www.w3.org/2000/svg" xmlns:xlink="http://www.w3.org/1999/xlink" x="0px" y="0px"
	 width="27px" height="27px" viewBox="0 0 27 27" enable-background="new 0 0 27 27" xml:space="preserve">
<path fill="#448DCB" d="M22.934,6.431H21.14V4.247c0-1.157-0.98-2.098-2.187-2.098H8.022c-1.206,0-2.187,0.941-2.187,2.098v2.184
	H4.042c-1.182,0-2.143,0.923-2.143,2.058v8.128c0,1.133,0.961,2.056,2.143,2.056h1.794v3.757c0,1.157,0.98,2.1,2.187,2.1h10.931
	c1.206,0,2.187-0.942,2.187-2.1v-3.757h1.794c1.181,0,2.143-0.923,2.143-2.056V8.488C25.076,7.354,24.114,6.431,22.934,6.431
	L22.934,6.431z M7.293,4.247c0-0.385,0.327-0.699,0.729-0.699h10.931c0.402,0,0.729,0.314,0.729,0.699v2.184H7.293V4.247z
	 M19.682,22.429c0,0.388-0.326,0.702-0.729,0.702H8.022c-0.402,0-0.729-0.314-0.729-0.702v-7.132h12.389V22.429z M23.618,16.616
	c0,0.362-0.308,0.656-0.685,0.656H21.14v-2.675c0-0.387-0.326-0.7-0.729-0.7H6.564c-0.402,0-0.729,0.313-0.729,0.7v2.675H4.042
	c-0.378,0-0.686-0.294-0.686-0.656V8.488c0-0.363,0.308-0.658,0.686-0.658h18.892c0.377,0,0.685,0.295,0.685,0.658V16.616
	L23.618,16.616z"/>
<path fill="#448DCB" d="M20.689,9.779c0,0.574,0.466,1.04,1.04,1.04s1.04-0.466,1.04-1.04s-0.466-1.04-1.04-1.04
	S20.689,9.205,20.689,9.779z"/>
</svg>
