<?xml version="1.0" encoding="utf-8"?>
<!-- Generator: Adobe Illustrator 16.0.0, SVG Export Plug-In . SVG Version: 6.00 Build 0)  -->
<!DOCTYPE svg PUBLIC "-//W3C//DTD SVG 1.1//EN" "http://www.w3.org/Graphics/SVG/1.1/DTD/svg11.dtd">
<svg version="1.1" id="图层_1" xmlns="http://www.w3.org/2000/svg" xmlns:xlink="http://www.w3.org/1999/xlink" x="0px" y="0px"
	 width="27px" height="27px" viewBox="0 0 27 27" enable-background="new 0 0 27 27" xml:space="preserve">
<path fill="#FFFFFF" d="M22.945,6.435h-1.793V4.251c0-1.157-0.98-2.098-2.188-2.098H8.035c-1.206,0-2.187,0.941-2.187,2.098v2.184
	H4.054c-1.182,0-2.143,0.923-2.143,2.058v8.128c0,1.133,0.961,2.055,2.143,2.055h1.794v3.758c0,1.156,0.98,2.101,2.187,2.101h10.931
	c1.206,0,2.187-0.943,2.187-2.101v-3.758h1.795c1.181,0,2.143-0.922,2.143-2.055V8.493C25.089,7.358,24.127,6.435,22.945,6.435
	L22.945,6.435z M7.306,4.251c0-0.385,0.327-0.699,0.729-0.699h10.931c0.402,0,0.729,0.314,0.729,0.699v2.184H7.306V4.251z
	 M19.693,22.434c0,0.387-0.325,0.701-0.729,0.701H8.035c-0.402,0-0.729-0.314-0.729-0.701v-7.133h12.389v7.133H19.693z
	 M23.631,16.621c0,0.361-0.308,0.656-0.686,0.656h-1.793v-2.676c0-0.388-0.326-0.701-0.729-0.701H6.577
	c-0.402,0-0.729,0.313-0.729,0.701v2.676H4.054c-0.378,0-0.686-0.295-0.686-0.656V8.493c0-0.363,0.308-0.658,0.686-0.658h18.891
	c0.378,0,0.686,0.295,0.686,0.658V16.621L23.631,16.621z"/>
<path fill="#FFFFFF" d="M20.702,9.784c0,0.574,0.466,1.04,1.04,1.04s1.04-0.466,1.04-1.04c0-0.574-0.466-1.04-1.04-1.04
	S20.702,9.209,20.702,9.784z"/>
</svg>
