<?xml version="1.0" standalone="no"?><!DOCTYPE svg PUBLIC "-//W3C//DTD SVG 1.1//EN" "http://www.w3.org/Graphics/SVG/1.1/DTD/svg11.dtd"><svg t="1535086168771" class="icon" style="" viewBox="0 0 1024 1024" version="1.1" xmlns="http://www.w3.org/2000/svg" p-id="11904" xmlns:xlink="http://www.w3.org/1999/xlink" width="27" height="27"><defs><style type="text/css"></style></defs><path d="M834.56 215.04h-56.32v125.44h56.32V215.04z m-20.48 179.2h-35.84v128h35.84v-128zM192 227.84v560.64c0 33.28 28.16 58.88 61.44 58.88h483.84v-38.4H253.44c-12.8 0-20.48-10.24-20.48-20.48s10.24-20.48 20.48-20.48h483.84V181.76H238.08c-23.04 5.12-40.96 23.04-46.08 46.08z m176.64 94.72h276.48v46.08H368.64v-46.08z m0 125.44h276.48v46.08H368.64v-46.08z m0 125.44h276.48v46.08H368.64v-46.08z m-92.16-250.88h48.64v46.08h-48.64v-46.08z m0 125.44h48.64v46.08h-48.64v-46.08z m0 125.44h48.64v46.08h-48.64v-46.08z m499.2-2.56v133.12h81.92v-133.12h-81.92z" fill="#448dcb" p-id="11905"></path></svg>