<?xml version="1.0" standalone="no"?><!DOCTYPE svg PUBLIC "-//W3C//DTD SVG 1.1//EN" "http://www.w3.org/Graphics/SVG/1.1/DTD/svg11.dtd"><svg t="1533632460809" class="icon" style="" viewBox="0 0 1024 1024" version="1.1" xmlns="http://www.w3.org/2000/svg" p-id="1629" xmlns:xlink="http://www.w3.org/1999/xlink" width="200" height="200"><defs><style type="text/css"></style></defs><path d="M756.393661 830.871421l-12.304234 0 0-98.429777c0-25.182542-9.467629-48.181349-25.039279-65.60109L608.967984 543.779797c-7.78736-8.712429-12.522198-20.211321-12.522198-32.80208 0-12.590759 4.734838-24.092721 12.522198-32.801057L719.050148 355.101577c15.57165-17.408485 25.039279-40.395012 25.039279-65.590857l0-98.426707 12.304234 0c20.377096 0 36.909631-16.534582 36.909631-36.911678s-16.532535-36.910655-36.909631-36.910655L264.247848 117.261681c-20.37812 0-36.909631 16.533558-36.909631 36.910655s16.531512 36.911678 36.909631 36.911678l12.304234 0 0 98.426707c0 25.195845 9.466606 48.182372 25.039279 65.590857l110.082164 123.075083c7.786337 8.708336 12.521175 20.210297 12.521175 32.801057 0 12.590759-4.734838 24.090675-12.521175 32.80208L301.592384 666.840554c-15.57165 17.419741-25.039279 40.418548-25.039279 65.60109l0 98.429777-12.304234 0c-20.37812 0-36.909631 16.532535-36.909631 36.910655s16.531512 36.910655 36.909631 36.910655l492.145813 0c20.377096 0 36.909631-16.532535 36.909631-36.910655S776.770757 830.871421 756.393661 830.871421zM350.373391 830.871421l0-98.429777c0-7.786337 3.400446-13.217023 6.235005-16.389272l110.107747-123.086339c20.185738-22.584368 31.30089-51.687196 31.30089-81.989339 0-30.29191-11.115152-59.418274-31.321356-82.016968L356.621698 305.888735c-2.860141-3.183506-6.248308-8.617261-6.248308-16.378016l0-98.426707 319.895751 0 0 98.426707c0 7.759731-3.390213 13.19451-6.248308 16.378016L553.912064 428.987355c-20.172435 22.572088-31.287587 51.698452-31.287587 81.990363 0 30.302143 11.115152 59.403948 31.333636 82.014922L664.019811 716.030883c2.835581 3.193739 6.248308 8.624425 6.248308 16.410762l0 98.429777L350.373391 830.871421z" p-id="1630" fill="#ffffff"></path></svg>