<?xml version="1.0" standalone="no"?><!DOCTYPE svg PUBLIC "-//W3C//DTD SVG 1.1//EN" "http://www.w3.org/Graphics/SVG/1.1/DTD/svg11.dtd"><svg t="1535621550515" class="icon" style="" viewBox="0 0 1024 1024" version="1.1" xmlns="http://www.w3.org/2000/svg" p-id="1945" xmlns:xlink="http://www.w3.org/1999/xlink" width="27" height="27"><defs><style type="text/css"></style></defs><path d="M755.2 392.48384a20.48 20.48 0 0 0-20.48 20.48V747.52h-409.6v-104.2688h15.36a20.48 20.48 0 0 0 0-40.96h-71.68a20.48 20.48 0 0 0 0 40.96h15.36V747.52c0 22.58432 18.37568 40.96 40.96 40.96h409.6c22.58432 0 40.96-18.37568 40.96-40.96V412.96384a20.48 20.48 0 0 0-20.48-20.48zM268.8 550.85568h71.68a20.48 20.48 0 0 0 0-40.96h-71.68a20.48 20.48 0 0 0 0 40.96zM268.8 458.46016h71.68a20.48 20.48 0 0 0 0-40.96h-71.68a20.48 20.48 0 0 0 0 40.96zM268.8 366.06464h71.68a20.48 20.48 0 0 0 0-40.96h-15.36V276.48h269.60384a20.48 20.48 0 0 0 0-40.96H325.12c-22.58432 0-40.96 18.37568-40.96 40.96v48.62464h-15.36a20.48 20.48 0 0 0 0 40.96z" p-id="1946" fill="#448DCB"></path><path d="M759.72608 290.93376l-43.44832-43.44832c-15.96928-15.95904-41.94816-15.96416-57.92768 0l-224.4608 224.46592c-0.11264 0.11264-0.18432 0.24576-0.29184 0.3584-0.512 0.53248-0.95232 1.1264-1.40288 1.72032-0.38912 0.50688-0.79872 0.99328-1.13152 1.52576-0.32256 0.512-0.57344 1.07008-0.84992 1.61792-0.34816 0.68608-0.70656 1.36192-0.9728 2.07872-0.0512 0.14336-0.13824 0.26112-0.18944 0.40448l-39.12704 111.53408a20.48 20.48 0 0 0 26.10688 26.10176l111.53408-39.12704c0.14336-0.0512 0.26624-0.13824 0.4096-0.18944 0.70144-0.26112 1.36704-0.6144 2.04288-0.95744 0.55808-0.2816 1.13152-0.54272 1.65376-0.8704 0.51712-0.32768 0.99328-0.72704 1.4848-1.1008 0.60928-0.46592 1.21856-0.91648 1.76128-1.43872 0.11264-0.10752 0.24064-0.17408 0.34816-0.28672l224.46592-224.4608c15.96416-15.96928 15.96416-41.95328-0.00512-57.92768z m-220.0576 220.0576l-43.4432-43.4432 112.72192-112.72704 43.4432 43.4432-112.72192 112.72704z m-73.51808-13.36832l1.10592-1.10592 43.4432 43.4432-1.10592 1.10592-66.9184 23.4752 23.4752-66.9184z m215.20384-128.31744l-43.4432-43.4432 49.40288-49.40288 43.4432 43.4432-49.40288 49.40288z" p-id="1947" fill="#448DCB"></path></svg>