<?xml version="1.0" standalone="no"?><!DOCTYPE svg PUBLIC "-//W3C//DTD SVG 1.1//EN" "http://www.w3.org/Graphics/SVG/1.1/DTD/svg11.dtd"><svg t="1535093835821" class="icon" style="" viewBox="0 0 1024 1024" version="1.1" xmlns="http://www.w3.org/2000/svg" p-id="2518" xmlns:xlink="http://www.w3.org/1999/xlink" width="27" height="27"><defs><style type="text/css"></style></defs><path d="M 819.2 290.133 h -102.4 v -68.2667 c 0 -37.5467 -30.72 -68.2667 -68.2667 -68.2667 h -273.067 c -37.5467 0 -68.2667 30.72 -68.2667 68.2667 v 68.2667 H 204.8 c -37.5467 0 -68.2667 30.72 -68.2667 68.2667 v 102.4 h 750.933 v -102.4 c 0 -37.5467 -30.72 -68.2667 -68.2667 -68.2667 Z m -170.667 0 h -273.067 V 238.933 c 0 -10.24 6.82667 -17.0667 17.0667 -17.0667 h 238.933 c 10.24 0 17.0667 6.82667 17.0667 17.0667 v 51.2 Z M 631.467 546.133 c 0 64.8533 -54.6133 119.467 -119.467 119.467 s -119.467 -54.6133 -119.467 -119.467 c 0 -6.82667 0 -10.24 3.41333 -17.0667 H 136.533 v 273.067 c 0 37.5467 30.72 68.2667 68.2667 68.2667 h 614.4 c 37.5467 0 68.2667 -30.72 68.2667 -68.2667 v -273.067 h -259.413 c 3.41333 6.82667 3.41333 10.24 3.41333 17.0667 Z" p-id="2519" fill="#448dcb"></path><path d="M 563.2 546.133 c 0 -6.82667 0 -10.24 -3.41333 -17.0667 h -95.5733 c -3.41333 6.82667 -3.41333 10.24 -3.41333 17.0667 c 0 27.3067 23.8933 51.2 51.2 51.2 s 51.2 -23.8933 51.2 -51.2 Z" p-id="2520" fill="#448dcb"></path></svg>