<?xml version="1.0" standalone="no"?><!DOCTYPE svg PUBLIC "-//W3C//DTD SVG 1.1//EN" "http://www.w3.org/Graphics/SVG/1.1/DTD/svg11.dtd"><svg t="1534995761024" class="icon" style="" viewBox="0 0 1024 1024" version="1.1" xmlns="http://www.w3.org/2000/svg" p-id="1875" id="mx_n_1534995761025" xmlns:xlink="http://www.w3.org/1999/xlink" width="27" height="27"><defs><style type="text/css"></style></defs><path d="M512 81.984c104.96 0 190.016 84.8 190.016 189.376 0 31.36-7.68 60.992-21.312 87.04l153.856 118.912c19.008-13.312 42.24-21.184 67.2-21.184 64.704 0 117.12 52.224 117.12 116.672 0 64.448-52.416 116.672-117.12 116.672a116.864 116.864 0 0 1-109.44-157.952L638.4 412.608a189.632 189.632 0 0 1-92.096 44.928v181.696a153.408 153.408 0 0 1 119.424 149.376 153.6 153.6 0 0 1-153.856 153.28 153.6 153.6 0 0 1-153.792-153.28c0-72.832 51.008-133.76 119.36-149.376v-181.76a189.568 189.568 0 0 1-92.032-44.8L231.616 531.456a116.864 116.864 0 0 1-109.568 157.952c-64.64 0-117.056-52.224-117.056-116.672 0-64.448 52.48-116.672 117.12-116.672 25.024 0 48.256 7.872 67.264 21.184L343.168 358.4a188.096 188.096 0 0 1-21.248-87.04A189.696 189.696 0 0 1 512 81.92z" p-id="1876" fill="#448DCB"></path></svg>