<?xml version="1.0" encoding="utf-8"?>
<!-- Generator: Adobe Illustrator 16.0.0, SVG Export Plug-In . SVG Version: 6.00 Build 0)  -->
<!DOCTYPE svg PUBLIC "-//W3C//DTD SVG 1.1//EN" "http://www.w3.org/Graphics/SVG/1.1/DTD/svg11.dtd">
<svg version="1.1" id="图层_1" xmlns="http://www.w3.org/2000/svg" xmlns:xlink="http://www.w3.org/1999/xlink" x="0px" y="0px"
	 width="27px" height="27px" viewBox="0 0 27 27" enable-background="new 0 0 27 27" xml:space="preserve">
<path fill="#448DCB" d="M25.09,13.565c0-0.051-0.006-0.103-0.017-0.153V7.79c0-0.993-0.733-1.803-1.634-1.803h-5.016V4.221
	c0-1.144-0.841-2.072-1.876-2.072H11.07c-1.036,0-1.878,0.928-1.878,2.072v1.766H3.564c-0.9,0-1.634,0.811-1.634,1.803v14.934
	c0,0.992,0.734,1.805,1.634,1.805h19.877c0.9,0,1.637-0.813,1.637-1.805v-9.005C25.086,13.668,25.09,13.616,25.09,13.565z
	 M10.644,4.221c0-0.259,0.192-0.47,0.427-0.47h5.478c0.234,0,0.427,0.211,0.427,0.47v1.766h-6.331V4.221z M3.564,7.588h19.877
	c0.102,0,0.185,0.09,0.185,0.202v4.975H3.38V7.79C3.382,7.682,3.464,7.588,3.564,7.588z M18.424,14.366h2.068v1.282h-2.068V14.366z
	 M7.125,14.366h2.067v1.282H7.125V14.366z M23.441,22.922H3.564c-0.101,0-0.183-0.088-0.183-0.2v-8.355h2.293v1.606
	c0,0.703,0.521,1.273,1.156,1.273h2.657c0.639,0,1.155-0.574,1.155-1.273v-1.606h6.331v1.606c0,0.703,0.519,1.273,1.154,1.273h2.657
	c0.638,0,1.154-0.574,1.154-1.273v-1.606h1.684v8.357C23.626,22.834,23.541,22.922,23.441,22.922z"/>
</svg>
