<?xml version="1.0" standalone="no"?><!DOCTYPE svg PUBLIC "-//W3C//DTD SVG 1.1//EN" "http://www.w3.org/Graphics/SVG/1.1/DTD/svg11.dtd"><svg t="1547878853980" class="icon" style="" viewBox="0 0 1024 1024" version="1.1" xmlns="http://www.w3.org/2000/svg" p-id="3700" xmlns:xlink="http://www.w3.org/1999/xlink" width="27" height="27"><defs><style type="text/css"></style></defs><path d="M949.056 644.864a383.808 383.808 0 0 0-141.952-88.896 220.8 220.8 0 0 0 93.12-179.776 221.632 221.632 0 0 0-221.376-221.376c-36.928 0-71.296 9.984-102.016 26.048a209.92 209.92 0 0 0-150.144-64.064 209.472 209.472 0 0 0-209.28 209.216c0 68.8 33.792 129.408 85.248 167.616-138.176 50.688-237.248 183.168-237.248 338.752a32 32 0 0 0 64 0 297.536 297.536 0 0 1 297.216-297.152c40.256 0 79.104 8.768 115.392 24.064-144.128 55.296-246.912 194.752-246.912 358.08a32 32 0 0 0 64 0 320.128 320.128 0 0 1 319.808-319.744c84.8 0 164.8 32.96 225.216 92.736a32 32 0 0 0 44.928-45.504z m-112.832-268.608c0 86.784-70.656 157.376-157.376 157.376S521.472 463.04 521.472 376.256 592.128 218.88 678.848 218.88s157.376 70.592 157.376 157.376zM426.688 180.8c36.224 0 70.528 14.336 96.896 38.016a220.48 220.48 0 0 0-48.768 243.136 143.808 143.808 0 0 1-48.128 9.28 145.472 145.472 0 0 1-145.28-145.28 145.408 145.408 0 0 1 145.28-145.152z" p-id="3701" fill="#1296db"></path></svg>