<?xml version="1.0" standalone="no"?><!DOCTYPE svg PUBLIC "-//W3C//DTD SVG 1.1//EN" "http://www.w3.org/Graphics/SVG/1.1/DTD/svg11.dtd"><svg t="1535086319700" class="icon" style="" viewBox="0 0 1024 1024" version="1.1" xmlns="http://www.w3.org/2000/svg" p-id="12796" xmlns:xlink="http://www.w3.org/1999/xlink" width="27" height="27"><defs><style type="text/css"></style></defs><path d="M903.458133 810.666667h-204.8c-0.733867 0-1.416533-0.170667-2.133333-0.221867a1.1776 1.1776 0 0 1 0 0.221867H86.357333a307.2 307.2 0 0 1 244.992-267.093334 170.666667 170.666667 0 1 1 120.2176 0 307.0464 307.0464 0 0 1 212.957867 161.28V503.466667a34.133333 34.133333 0 0 1 34.133333-34.133334h204.8a34.133333 34.133333 0 0 1 34.133334 34.133334v273.066666a34.133333 34.133333 0 0 1-34.133334 34.133334z m0-291.140267a16.5888 16.5888 0 0 0-17.066666-16.059733h-170.666667a16.5888 16.5888 0 0 0-17.066667 16.059733v240.9472a16.5888 16.5888 0 0 0 17.066667 16.059733h170.666667a16.5888 16.5888 0 0 0 17.066666-16.059733V519.5264z m-51.2 205.806933h-102.4a17.066667 17.066667 0 0 1 0-34.133333h102.4a17.066667 17.066667 0 0 1 0 34.133333z m0-68.266666h-102.4a17.066667 17.066667 0 0 1 0-34.133334h102.4a17.066667 17.066667 0 0 1 0 34.133334z m0-68.266667h-102.4a17.066667 17.066667 0 0 1 0-34.133333h102.4a17.066667 17.066667 0 0 1 0 34.133333z" p-id="12797" fill="#ffffff"></path></svg>