<?xml version="1.0" encoding="utf-8"?>
<!-- Svg Vector Icons : http://www.sfont.cn -->
<!DOCTYPE svg PUBLIC "-//W3C//DTD SVG 1.1//EN" "http://www.w3.org/Graphics/SVG/1.1/DTD/svg11.dtd">
<svg version="1.1" xmlns="http://www.w3.org/2000/svg" xmlns:xlink="http://www.w3.org/1999/xlink" x="0px" y="0px" viewBox="0 0 1000 1000" enable-background="new 0 0 1000 1000" xml:space="preserve">
<metadata> Svg Vector Icons : http://www.sfont.cn </metadata>
<g><path d="M746.1,917.2L746.1,917.2V524.6H255.4v392.6H746.1 M746.1,966.2H255.4c-27.1,0-49.1-22-49.1-49.1V524.5c0-27.1,22-49.1,49.1-49.1h490.7c27.1,0,49.1,22,49.1,49.1v392.6C795.2,944.3,773.3,966.2,746.1,966.2L746.1,966.2L746.1,966.2z"/><path d="M255.4,230.1V82.9h490.7v147.2h49.1V82.9c0-27.1-22-49.1-49.1-49.1H255.4c-27.1,0-49.1,22-49.1,49.1v147.2H255.4z"/><path d="M842.8,181H157.2C75.9,181,10,246.9,10,328.2v343.5c0,54.2,43.9,98.1,98.1,98.1h147.2v-49.1H108.1c-27.1,0-49.1-22-49.1-49.1V328.2c0-54.1,44-98.1,98.1-98.1h685.6c54.1,0,98.2,44,98.2,98.1v343.5c0,27.1-22,49.1-49.1,49.1H746.1v49.1h145.8c54.2,0,98.1-43.9,98.1-98.1V328.2C990,246.9,924.1,181,842.8,181z"/></g>
</svg>