<?xml version="1.0" standalone="no"?><!DOCTYPE svg PUBLIC "-//W3C//DTD SVG 1.1//EN" "http://www.w3.org/Graphics/SVG/1.1/DTD/svg11.dtd"><svg t="1535082715707" class="icon" style="" viewBox="0 0 1024 1024" version="1.1" xmlns="http://www.w3.org/2000/svg" p-id="8231" xmlns:xlink="http://www.w3.org/1999/xlink" width="27" height="27"><defs><style type="text/css"></style></defs><path d="M888.7 577c0.2-5.4 0.4-10.9 0.4-16.3 0-72.5-21-142.7-60.6-203.1C790 299.2 736.2 253 672.9 224c-6.1-79.6-72.9-142.5-154-142.5-81.3 0-148.2 63.2-154 143.1-0.5-0.2-3 0.9-3 0.9-62.7 29.5-115.8 75.8-153.6 134.1-38.8 59.9-59.3 129.4-59.3 201 0 2.5 0 4.9 0.1 7.4-21 12.2-38.9 29.1-52.3 49.7-16.2 25-24.8 54-24.8 84 0 85.1 69.3 154.4 154.4 154.4 19.6 0 38.5-3.6 56.4-10.6 32.5 26.9 68.9 48 108.3 62.5C432 923 475 930.6 519 930.6c84.5 0 166.4-29 232-81.8 15 4.8 30.7 7.2 46.7 7.2 85.1 0 154.4-69.3 154.4-154.4 0-51.1-25-96.5-63.4-124.6z m-93.6-29.7c-83.5 1.4-151.2 69.8-151.8 153.3-0.2 31.7 9.1 62.2 26.9 88.2 11 16 24.7 29.7 40.5 40.4C655 869 588 890.6 519 890.6c-71.7 0-141.6-23.5-198.6-66.5 14.4-11.1 26.8-24.6 36.6-40.1 15.6-24.6 23.8-53.1 23.8-82.4 0-85.1-69.3-154.4-154.4-154.4-12.7 0-25.2 1.5-37.3 4.5 3.2-119.8 72.2-229.5 178.6-284.5 14.5 70.2 76.8 123.1 151.2 123.1 74.4 0 136.7-53 151.2-123.2C778 322.8 847.3 434.1 849 556c-16.8-5.9-35-9-53.9-8.7z" p-id="8232" fill="#ffffff"></path></svg>