<?xml version="1.0" standalone="no"?><!DOCTYPE svg PUBLIC "-//W3C//DTD SVG 1.1//EN" "http://www.w3.org/Graphics/SVG/1.1/DTD/svg11.dtd"><svg t="1533110802583" class="icon" style="" viewBox="0 0 1024 1024" version="1.1" xmlns="http://www.w3.org/2000/svg" p-id="6580" xmlns:xlink="http://www.w3.org/1999/xlink" width="200" height="200"><defs><style type="text/css"></style></defs><path d="M355.376335 368.44856c-20.060895 0-36.31816 15.416108-36.31816 34.43016v352.428702c0 19.022239 16.257266 34.43016 36.31816 34.43016 20.044522 0 36.314067-15.407921 36.314067-34.43016V402.87872c0-19.014052-16.269545-34.43016-36.314067-34.43016zM508.43429 368.44856c-20.060895 0-36.319184 15.416108-36.319184 34.43016v352.428702c0 19.022239 16.257266 34.43016 36.319184 34.43016 20.044522 0 36.31816-15.407921 36.31816-34.43016V402.87872c0-19.014052-16.273638-34.43016-36.31816-34.43016zM665.806503 368.44856c-20.056801 0-36.314067 15.416108-36.314067 34.43016v352.428702c0 19.022239 16.257266 34.43016 36.314067 34.43016 20.060895 0 36.319184-15.407921 36.319184-34.43016V402.87872c0-19.014052-16.257266-34.43016-36.319184-34.43016z" p-id="6581" fill="#ffffff"></path><path d="M915.69276 226.830145H716.470393v-82.191954c0-44.051285-35.851533-79.897701-79.901795-79.897701H384.61424c-44.051285 0-79.901795 35.847439-79.901795 79.897701v82.191954H105.491101c-18.841114 0-34.120099 16.269545-34.120099 36.322254 0 20.060895 15.278985 36.314067 34.120099 36.314067h41.921785v556.057425c0 58.186214 45.61592 105.537661 101.689007 105.537661h522.979052c56.073086 0 101.689007-47.350424 101.689007-105.537661V299.466466h41.921785c18.841114 0 34.120099-16.253172 34.120099-36.314067 0.001023-20.052708-15.277962-36.322254-34.119076-36.322254z m-538.343994-82.191954c0-4.001127 3.264347-7.261381 7.265474-7.26138h251.953335c4.001127 0 7.265474 3.260254 7.265474 7.26138v82.191954H377.348766v-82.191954z m423.785889 710.8857c0 16.623609-13.036921 30.147624-29.052687 30.147624H249.101893c-16.015765 0-29.052686-13.524015-29.052686-30.147624V299.466466h581.084424v556.057425z" p-id="6582" fill="#ffffff"></path></svg>