<?xml version="1.0" standalone="no"?><!DOCTYPE svg PUBLIC "-//W3C//DTD SVG 1.1//EN" "http://www.w3.org/Graphics/SVG/1.1/DTD/svg11.dtd"><svg t="1533110022984" class="icon" style="" viewBox="0 0 1024 1024" version="1.1" xmlns="http://www.w3.org/2000/svg" p-id="3446" xmlns:xlink="http://www.w3.org/1999/xlink" width="200" height="200"><defs><style type="text/css"></style></defs><path d="M995.818092 995.818092a96.151485 96.151485 0 0 1-136.001275 0l-169.724266-169.741332c-69.801131 44.730749-152.282516 71.439495-241.317357 71.439495C200.90438 897.516255 0 696.594808 0 448.758127 0 200.921446 200.921446 0 448.758127 0c247.853747 0 448.775194 200.921446 448.775194 448.758127 0 89.051908-26.708746 171.533293-71.439495 241.317358l169.724266 169.741332c37.545841 37.545841 37.545841 98.438368 0 136.001275zM448.758127 128.219046c-177.011572 0-320.539081 143.510443-320.539081 320.539081s143.527509 320.539081 320.539081 320.539082c177.045705 0 320.556148-143.510443 320.556148-320.539082S625.786766 128.219046 448.758127 128.219046z" fill="#ffffff" p-id="3447"></path></svg>