<?xml version="1.0" encoding="utf-8"?>
<!-- Generator: Adobe Illustrator 16.0.0, SVG Export Plug-In . SVG Version: 6.00 Build 0)  -->
<!DOCTYPE svg PUBLIC "-//W3C//DTD SVG 1.1//EN" "http://www.w3.org/Graphics/SVG/1.1/DTD/svg11.dtd">
<svg version="1.1" id="图层_1" xmlns="http://www.w3.org/2000/svg" xmlns:xlink="http://www.w3.org/1999/xlink" x="0px" y="0px"
	 width="27px" height="27px" viewBox="0 0 27 27" enable-background="new 0 0 27 27" xml:space="preserve">
<path fill="#FFFFFF" d="M26.248,7.627c-0.689-0.399-1.574-0.163-1.971,0.527c0,0-0.002,0.001-0.002,0.001
	c-2.221,3.841-6.355,6.226-10.785,6.226c-4.431,0-8.559-2.384-10.781-6.222C2.295,7.477,1.408,7.259,0.726,7.672
	c-0.662,0.402-0.89,1.255-0.515,1.934c1.313,2.262,3.18,4.152,5.427,5.492l-0.861,1.426c-0.412,0.682-0.193,1.568,0.49,1.982
	c0.683,0.41,1.57,0.191,1.982-0.492l1.009-1.668c1.222,0.447,2.496,0.736,3.792,0.859v1.941c0.013,0.799,0.67,1.434,1.468,1.42
	c0.779-0.014,1.408-0.641,1.419-1.42v-1.943c1.273-0.121,2.525-0.402,3.729-0.836l0.996,1.646c0.428,0.672,1.318,0.873,1.992,0.445
	c0.652-0.414,0.863-1.268,0.477-1.938l-0.838-1.389c2.273-1.342,4.162-3.249,5.482-5.534C27.174,8.909,26.938,8.026,26.248,7.627z"
	/>
</svg>
