<?xml version="1.0" standalone="no"?><!DOCTYPE svg PUBLIC "-//W3C//DTD SVG 1.1//EN" "http://www.w3.org/Graphics/SVG/1.1/DTD/svg11.dtd"><svg t="1534743792362" class="icon" style="" viewBox="0 0 1024 1024" version="1.1" xmlns="http://www.w3.org/2000/svg" p-id="4186" xmlns:xlink="http://www.w3.org/1999/xlink" width="27" height="27"><defs><style type="text/css"></style></defs><path d="M954.709333 810.666667C954.709333 943.616 866.56 1024 742.613333 1024L276.053333 1024C152.106667 1024 64 943.616 64 810.666667L64 341.333333C64 213.589333 158.805333 93.354667 276.053333 85.333333 292.992 34.730667 303.445333 0 362.666667 0L661.333333 0C720.554667 0 725.717333 34.730667 742.613333 85.333333 859.861333 93.354667 960 203.989333 960 331.733333L954.709333 810.666667ZM657.792 85.333333 360.917333 85.333333C313.045333 85.333333 318.592 161.109333 318.464 213.333333L700.202667 213.333333C700.117333 161.109333 705.621333 85.333333 657.792 85.333333ZM869.888 341.333333C869.888 254.762667 817.450667 185.941333 742.613333 170.666667 746.709333 200.448 742.613333 206.250667 742.613333 213.333333L785.024 213.333333 785.024 298.666667 233.642667 298.666667 233.642667 213.333333 276.053333 213.333333C276.053333 206.250667 271.957333 200.448 276.053333 170.666667 201.258667 185.941333 148.821333 254.762667 148.821333 341.333333L148.821333 810.666667C148.821333 908.288 187.178667 938.666667 276.053333 938.666667L742.613333 938.666667C831.488 938.666667 869.888 908.288 869.888 810.666667L869.888 341.333333ZM197.888 636.373333 258.005333 576.042667 408.362667 726.869333 769.152 364.842667 829.269333 425.173333 408.362667 847.573333 197.888 636.373333Z" p-id="4187" fill="#ffffff"></path></svg>