<?xml version="1.0" standalone="no"?><!DOCTYPE svg PUBLIC "-//W3C//DTD SVG 1.1//EN" "http://www.w3.org/Graphics/SVG/1.1/DTD/svg11.dtd"><svg t="1534744000224" class="icon" style="" viewBox="0 0 1024 1024" version="1.1" xmlns="http://www.w3.org/2000/svg" p-id="8741" xmlns:xlink="http://www.w3.org/1999/xlink" width="27" height="27"><defs><style type="text/css"></style></defs><path d="M314.842663 669.418262l393.972886 0 0 78.794577-393.972886 0 0-78.794577Z" p-id="8742" fill="#ffffff"></path><path d="M314.842663 787.098475l276.292674 0 0 78.794577-276.292674 0 0-78.794577Z" p-id="8743" fill="#ffffff"></path><path d="M932.904257 312.284399l-65.476247 0L867.42801 91.074252c0-50.29857-40.775682-91.074252-91.074252-91.074252l-528.025998 0c-50.29857 0-91.074252 40.775682-91.074252 91.074252l0 221.210148-66.157769 0c-50.29857 0-91.074252 40.775682-91.074252 91.074252l0 292.665573c0 50.29857 40.775682 91.074252 91.074252 91.074252l66.157769 0 0 145.827273c0 50.29857 40.775682 91.074252 91.074252 91.074252l528.025998 0c50.29857 0 91.074252-40.775682 91.074252-91.074252L867.42801 787.098475l65.476247 0c50.29857 0 91.074252-40.775682 91.074252-91.074252l0-292.665573C1023.978509 353.060081 983.202826 312.284399 932.904257 312.284399zM235.914032 116.062366c0-21.476127 17.409508-38.885636 38.885636-38.885636l472.441029 0c21.476127 0 38.885636 17.409508 38.885636 38.885636l0 196.223057L235.914032 312.285422 235.914032 116.062366zM787.71348 905.876696c0 21.476127-17.409508 38.885636-38.885636 38.885636l-473.9238 0c-21.476127 0-38.885636-17.409508-38.885636-38.885636L236.01841 591.225389l551.695071 0L787.71348 905.876696zM847.673084 511.710404c-32.352849 0-58.580187-26.227338-58.580187-58.580187 0-32.352849 26.227338-58.580187 58.580187-58.580187 32.352849 0 58.580187 26.227338 58.580187 58.580187C906.254294 485.483066 880.026956 511.710404 847.673084 511.710404z" p-id="8744" fill="#ffffff"></path></svg>