<?xml version="1.0" encoding="utf-8"?>
<!-- Generator: Adobe Illustrator 16.0.0, SVG Export Plug-In . SVG Version: 6.00 Build 0)  -->
<!DOCTYPE svg PUBLIC "-//W3C//DTD SVG 1.1//EN" "http://www.w3.org/Graphics/SVG/1.1/DTD/svg11.dtd">
<svg version="1.1" id="图层_1" xmlns="http://www.w3.org/2000/svg" xmlns:xlink="http://www.w3.org/1999/xlink" x="0px" y="0px"
	 width="27px" height="27px" viewBox="0 0 27 27" enable-background="new 0 0 27 27" xml:space="preserve">
<path fill="#FFFFFF" d="M4.059,2.373v22.255h18.884V2.373H4.059z M3.384,0.013h20.231c1.013,0,1.687,0.674,1.687,1.686v23.604
	c0,1.011-0.674,1.686-1.687,1.686H3.384c-1.012,0-1.686-0.675-1.686-1.686V1.698C1.698,0.687,2.373,0.013,3.384,0.013z"/>
<path fill="#FFFFFF" d="M7.937,10.128h11.127c0.675,0,1.181,0.506,1.181,1.181c0,0.674-0.506,1.18-1.181,1.18H7.937
	c-0.675,0-1.18-0.505-1.18-1.18C6.756,10.634,7.262,10.128,7.937,10.128z M9.623,5.913h7.755c0.674,0,1.18,0.506,1.18,1.181
	c0,0.674-0.506,1.18-1.18,1.18H9.623c-0.674,0-1.18-0.505-1.18-1.18C8.442,6.419,8.948,5.913,9.623,5.913z"/>
</svg>
