<?xml version="1.0" encoding="utf-8"?>
<!-- Generator: Adobe Illustrator 16.0.0, SVG Export Plug-In . SVG Version: 6.00 Build 0)  -->
<!DOCTYPE svg PUBLIC "-//W3C//DTD SVG 1.1//EN" "http://www.w3.org/Graphics/SVG/1.1/DTD/svg11.dtd">
<svg version="1.1" id="图层_1" xmlns="http://www.w3.org/2000/svg" xmlns:xlink="http://www.w3.org/1999/xlink" x="0px" y="0px"
	 width="27px" height="27px" viewBox="0 0 27 27" enable-background="new 0 0 27 27" xml:space="preserve">
<g>
	<path fill="#FFFFFF" d="M23.315,25.18H3.782c-0.396,0-0.717-0.322-0.717-0.717v-6.314h20.966v6.314
		C24.031,24.857,23.71,25.18,23.315,25.18 M23.315,2.778h-2.533c-0.496,0-0.896,0.401-0.896,0.896c0,0.495,0.4,0.896,0.896,0.896
		h2.533c0.395,0,0.716,0.32,0.716,0.715v11.07H3.065V5.286c0-0.395,0.321-0.715,0.717-0.715h2.801c0.494,0,0.896-0.402,0.896-0.896
		c0-0.495-0.402-0.896-0.896-0.896H3.782c-1.384,0-2.51,1.125-2.51,2.508v19.177c0,1.385,1.125,2.51,2.51,2.51h19.533
		c1.384,0,2.509-1.125,2.509-2.51V5.286C25.824,3.902,24.699,2.778,23.315,2.778"/>
	<path fill="#FFFFFF" d="M19.809,20.484H6.936c-0.495,0-0.896,0.402-0.896,0.896s0.401,0.895,0.896,0.895h12.873
		c0.494,0,0.896-0.4,0.896-0.895S20.303,20.484,19.809,20.484z M6.984,7.801l5.715,5.714c0.175,0.176,0.404,0.263,0.633,0.263
		c0.024,0,0.046-0.012,0.068-0.013c0.024,0.001,0.047,0.015,0.071,0.015c0.059,0,0.107-0.023,0.159-0.033
		c0.062-0.011,0.124-0.013,0.183-0.037c0.11-0.045,0.213-0.112,0.295-0.197l5.714-5.712c0.351-0.35,0.351-0.918,0-1.268
		c-0.351-0.351-0.917-0.351-1.268,0l-4.186,4.184V0.924c0-0.495-0.401-0.896-0.897-0.896c-0.494,0-0.896,0.401-0.896,0.896v9.935
		L8.252,6.534c-0.35-0.351-0.918-0.351-1.268,0C6.634,6.883,6.634,7.451,6.984,7.801z"/>
</g>
</svg>
