<?xml version="1.0" standalone="no"?><!DOCTYPE svg PUBLIC "-//W3C//DTD SVG 1.1//EN" "http://www.w3.org/Graphics/SVG/1.1/DTD/svg11.dtd"><svg t="1534743850831" class="icon" style="" viewBox="0 0 1024 1024" version="1.1" xmlns="http://www.w3.org/2000/svg" p-id="5576" xmlns:xlink="http://www.w3.org/1999/xlink" width="27" height="27"><defs><style type="text/css"></style></defs><path d="M1023.64191 807.491879c-13.151167-5.117186-21.492179-21.338664-37.457799-19.03593-40.783969 5.78242-43.393733-16.682025-42.47264-49.124981 2.149218-71.845285 0.153516-143.844086 0.921094-215.791715 0.409375-37.406626-17.0914-52.297636-53.628105-51.939433-101.21793 0.869922-202.538204-1.125781-303.756134 1.279296-31.368347 0.665234-40.52811-9.36445-35.615611-37.867173 0.255859-1.279296 0-2.712108 0-4.093748 0.767578-37.099595-11.923042-84.075359 6.08945-108.740193 17.296087-23.897257 67.137474-6.396482 102.548399-7.624606 31.061316-1.074609 48.306232-15.351557 48.664434-45.696467 1.023437-74.557393 0.102344-149.165959 0.409375-223.774524 0.051172-18.882415-12.792964-30.703113-21.492179-45.082405H336.045688c-16.733197 18.575384-22.515616 39.965219-22.003898 65.0906 1.228125 63.862476 0 127.878467 0.614062 191.792115 0.358203 44.928889 12.332417 56.289041 56.851931 57.312478 2.660936 0 5.321873-0.153516 8.033982 0 30.089051 2.660936 81.158563-11.769527 86.429264 6.34531 12.792964 44.161311 6.754685 94.514417 4.861326 142.206586-0.767578 16.477337-19.752336 8.750387-30.140223 8.852731-99.938634 0.614062-199.723752 0.307031-299.662386 0.358203-50.660137 0-61.406227 10.234371-61.50857 59.666384-0.204687 75.887862-0.716406 151.826895 0.307031 227.8171 0.255859 19.957024-4.196092 30.703113-26.19999 27.632802-21.389836-2.967968-37.150767 9.466793-53.423417 20.468742v191.894458L24.255572 1023.43711H256.064077c14.686323-18.063665 20.468742-38.378892 19.85468-61.917946-1.125781-39.914047 0.255859-79.828095-0.511718-119.742141-0.81875-42.882015-11.769527-53.116386-55.41912-54.753886-61.662086-2.251562-61.662086-2.251562-61.662086-63.555444 0-49.227325 0.81875-98.505822-0.409374-147.630803-0.358203-19.240618 5.78242-25.023037 24.869521-24.81835 89.141372 0.921093 178.282744 0.81875 267.475289 0 17.910149-0.102344 22.413273 6.038279 22.310929 23.027335a6785.695068 6785.695068 0 0 0 0 187.647194c0.153516 17.858978-3.428514 24.920694-23.743741 25.944131-95.026136 4.861326-95.026136 5.628904-95.026136 103.16246 0 22.61796 1.279296 45.389436-0.358203 67.853881-1.637499 25.330068 5.117186 46.668732 22.566789 64.732397h271.824896c17.500775-18.063665 23.692569-39.402329 22.61796-64.732397-1.535156-37.150767 0-74.506222-0.460547-111.759333-0.614062-47.231623-12.076558-58.642946-58.949977-59.871071-59.359352-1.535156-59.359352-1.535156-59.359352-61.303883 0-49.278497 0.869922-98.505822-0.511719-147.733146-0.56289-20.468742 4.912498-27.325771 26.455849-27.01874 87.759732 1.125781 175.570636 0.972265 263.432712 0.051172 19.087102-0.204687 25.176553 5.577732 24.869522 24.716006a5312.406177 5312.406177 0 0 0 0 187.647194c0.358203 20.468742-8.5457 23.283194-26.097646 24.050772-91.597621 4.042577-91.597621 4.451951-91.597622 98.352306 0 23.948428 1.023437 47.896857-0.255859 71.794114-1.279296 24.716006 3.837889 46.771076 19.85468 65.858178h231.808505l23.999601-24.050772v-191.894459z" p-id="5577" fill="#ffffff"></path></svg>