<?xml version="1.0" standalone="no"?><!DOCTYPE svg PUBLIC "-//W3C//DTD SVG 1.1//EN" "http://www.w3.org/Graphics/SVG/1.1/DTD/svg11.dtd"><svg t="1534743566624" class="icon" style="" viewBox="0 0 1029 1024" version="1.1" xmlns="http://www.w3.org/2000/svg" p-id="1897" xmlns:xlink="http://www.w3.org/1999/xlink" width="27.1318359375" height="27"><defs><style type="text/css"></style></defs><path d="M512 638.976 319.488 638.976l0 258.048 192.512 0L512 638.976zM958.464 0 65.536 0C28.672 0 0 28.672 0 65.536l0 770.048L192.512 1024l770.048 0c36.864 0 65.536-28.672 65.536-65.536L1028.096 65.536C1024 28.672 995.328 0 958.464 0zM831.488 958.464 192.512 958.464l0-385.024 638.976 0L831.488 958.464zM897.024 512 126.976 512 126.976 65.536l770.048 0L897.024 512z" p-id="1898" fill="#ffffff"></path></svg>