<?xml version="1.0" encoding="utf-8"?>
<!-- Generator: Adobe Illustrator 16.0.0, SVG Export Plug-In . SVG Version: 6.00 Build 0)  -->
<!DOCTYPE svg PUBLIC "-//W3C//DTD SVG 1.1//EN" "http://www.w3.org/Graphics/SVG/1.1/DTD/svg11.dtd">
<svg version="1.1" id="图层_1" xmlns="http://www.w3.org/2000/svg" xmlns:xlink="http://www.w3.org/1999/xlink" x="0px" y="0px"
	 width="27px" height="27px" viewBox="0 0 27 27" enable-background="new 0 0 27 27" xml:space="preserve">
<path fill="#FFFFFF" d="M10.797,17.092c0.812,0.817,0.475,0.326,1.017-0.219l4.993-5.065c0.542-0.546,2.067-1.22,1.255-2.038
	c-0.813-0.818-1.907-1.039-2.449-0.494l-5.584,5.637C9.487,15.46,9.986,16.272,10.797,17.092z M6.719,23.879l-3.53-3.581
	l7.514-7.619c-1.888-0.566-4.011-0.126-5.501,1.377l-3.919,3.948c-2.164,2.183-0.779,4.322,1.387,6.503
	c2.164,2.183,4.289,3.578,6.454,1.396l3.919-3.948c1.557-1.57,1.977-3.835,1.293-5.798L6.719,23.879z M24.307,2.513
	c-2.201-2.219-4.387-3.617-6.588-1.396L13.73,5.134c-1.565,1.578-1.994,3.847-1.334,5.826l7.842-7.951l3.532,3.581l-7.823,7.935
	c1.958,0.653,4.2,0.218,5.76-1.354l3.986-4.018C27.895,6.934,26.509,4.732,24.307,2.513L24.307,2.513z"/>
</svg>
