<?xml version="1.0" encoding="utf-8"?>
<!-- Generator: Adobe Illustrator 16.0.0, SVG Export Plug-In . SVG Version: 6.00 Build 0)  -->
<!DOCTYPE svg PUBLIC "-//W3C//DTD SVG 1.1//EN" "http://www.w3.org/Graphics/SVG/1.1/DTD/svg11.dtd">
<svg version="1.1" id="图层_1" xmlns="http://www.w3.org/2000/svg" xmlns:xlink="http://www.w3.org/1999/xlink" x="0px" y="0px"
	 width="27px" height="27px" viewBox="0 0 27 27" enable-background="new 0 0 27 27" xml:space="preserve">
<path fill="#FFFFFF" d="M24.284,0.645c0.415,0.415,0.63,0.921,0.646,1.52v22.613c-0.016,0.6-0.23,1.105-0.646,1.52
	c-0.414,0.414-0.921,0.63-1.52,0.646H4.235c-0.614-0.016-1.136-0.231-1.551-0.646s-0.614-0.92-0.614-1.52V2.165
	c0-0.599,0.2-1.105,0.614-1.52S3.605,0.016,4.235,0h18.529C23.379,0.016,23.87,0.23,24.284,0.645z M4.235,2.165v18.744h18.529V2.165
	h-7.798v8.336c-0.016,0.307-0.125,0.553-0.323,0.752c-0.198,0.199-0.445,0.307-0.752,0.307h-0.03
	c-0.707-0.016-1.305-0.276-1.796-0.783l-1.044-1.013l-1.044,1.028c-0.538,0.507-1.167,0.752-1.888,0.752
	c-0.307,0-0.553-0.092-0.752-0.307c-0.2-0.199-0.307-0.445-0.307-0.752v-8.32H4.235z M22.78,24.763v-1.704H4.235v1.704H22.78z
	 M9.194,2.165v6.355l1.32-1.32c0.153-0.138,0.337-0.215,0.522-0.215c0.184,0,0.368,0.077,0.522,0.215l1.259,1.259V2.165H9.194z"/>
</svg>
