<?xml version="1.0" encoding="utf-8"?>
<!-- Generator: Adobe Illustrator 16.0.0, SVG Export Plug-In . SVG Version: 6.00 Build 0)  -->
<!DOCTYPE svg PUBLIC "-//W3C//DTD SVG 1.1//EN" "http://www.w3.org/Graphics/SVG/1.1/DTD/svg11.dtd">
<svg version="1.1" id="图层_1" xmlns="http://www.w3.org/2000/svg" xmlns:xlink="http://www.w3.org/1999/xlink" x="0px" y="0px"
	 width="27px" height="27px" viewBox="0 0 27 27" enable-background="new 0 0 27 27" xml:space="preserve">
<path fill="#FFFFFF" d="M24.802,2.932c-0.762-0.776-2.016-0.776-2.776,0l-8.666,8.807l2.775,2.832l8.667-8.807
	C25.563,4.989,25.563,3.721,24.802,2.932z M12.485,14.951c-0.056,0.297,0.197,0.55,0.479,0.494l2.818-0.521l-2.777-2.833
	C13.021,12.09,12.485,14.951,12.485,14.951z"/>
<path fill="#FFFFFF" d="M18.799,14.824h-1.536l-1.747,0.366l-2.819,0.522c-0.282,0.057-0.536-0.48-0.479-0.775
	c0,0,0.014-0.113,0.028-0.127H6.13c-0.465,0-0.846,0.38-0.846,0.845c0,0.466,0.381,0.845,0.846,0.845h12.682
	c0.465,0,0.846-0.379,0.846-0.845C19.645,15.205,19.264,14.824,18.799,14.824z M18.291,6.44H6.412c-0.465,0-0.845,0.381-0.845,0.846
	c0,0.465,0.38,0.845,0.845,0.845h10.217L18.291,6.44z M13.021,11.95l0.38,0.381h0.254l-0.578-0.592l1.086-1.099H6.397
	c-0.465,0-0.845,0.38-0.845,0.845c0,0.465,0.38,0.846,0.845,0.846h6.426C12.838,12.288,13.021,11.95,13.021,11.95z M18.63,12.331
	h0.465c0.465,0,0.69-0.409,0.846-0.846c0.069-0.197,0.084-0.324,0.069-0.549L18.63,12.331z"/>
<path fill="#FFFFFF" d="M22.181,9.413v15.163c0,0.38-0.254,0.521-0.69,0.521H4.298c-0.493,0-0.888-0.409-0.888-0.888V2.762
	c0-0.493,0.409-0.888,0.888-0.888h16.98c0.269,0,0.493,0.113,0.662,0.296l0.071-0.07c0.45-0.451,1.056-0.634,1.635-0.563
	c-0.451-0.86-1.339-1.438-2.368-1.438H4.298c-1.479,0-2.677,1.212-2.677,2.677v21.446c0,1.48,1.211,2.678,2.677,2.678h17.53
	c1.367,0,2.129-0.817,2.129-2.24V7.61L22.181,9.413z"/>
<path fill="#FFFFFF" d="M19.08,19.024H6.397c-0.465,0-0.845,0.38-0.845,0.845s0.38,0.846,0.845,0.846H19.08
	c0.465,0,0.846-0.381,0.846-0.846S19.545,19.024,19.08,19.024z"/>
</svg>
