<?xml version="1.0" standalone="no"?><!DOCTYPE svg PUBLIC "-//W3C//DTD SVG 1.1//EN" "http://www.w3.org/Graphics/SVG/1.1/DTD/svg11.dtd"><svg t="1533777489125" class="icon" style="" viewBox="0 0 1024 1024" version="1.1" xmlns="http://www.w3.org/2000/svg" p-id="7462" xmlns:xlink="http://www.w3.org/1999/xlink" width="35" height="35"><defs><style type="text/css"></style></defs><path d="M954.83 640.194c1.197 7.585 0.898 16.815-0.874 27.703-1.934 10.853-5.225 21.879-9.668 32.905-4.512 11.164-9.852 21.281-16.229 30.051-6.283 8.955-13.281 15.342-21.016 19.232-7.573 3.706-14.271 5.65-19.935 5.65-5.823 0-12.2-1.196-19.221-3.717-6.238-1.934-14.295-3.729-23.824-5.375-9.53-1.485-19.197-1.934-29.165-0.874-9.829 0.874-19.681 2.98-29.487 6.249-9.989 3.131-18.345 8.482-25.32 16.24-15.33 15.756-24.262 33.93-26.817 54.347-2.509 20.383 0.323 39.742 8.656 58.191 6.399 12.799 5.363 25.459-2.831 38.258-3.868 5.063-9.968 10.277-18.163 15.791-8.354 5.374-17.425 10.277-27.254 14.742-9.806 4.478-20.164 7.885-31.029 10.566-10.796 2.521-20.325 3.718-28.657 3.718-5.663 0-11.096-2.21-16.252-6.699-5.064-4.466-8.563-9.23-10.497-14.295h-0.967c-6.975-19.635-18.898-36.761-35.725-51.056-16.896-14.294-36.462-21.441-58.744-21.441-21.661 0-41.227 7.147-58.721 21.441-17.493 14.295-29.786 30.973-36.783 50.158-3.131 7.607-7.942 13.109-14.295 16.688-6.376 3.442-13.396 5.203-20.993 5.203-8.932 0-18.968-1.624-30.086-4.766-11.164-3.096-22.328-7.136-33.422-11.912-11.165-4.765-21.201-10.415-30.063-16.665-8.931-6.411-15.629-12.799-20.095-19.21-3.131-4.454-4.903-9.655-5.226-15.617-0.299-6.124 2.095-14.594 7.159-25.321 6.974-14.732 9.737-31.409 8.103-50.158-1.565-18.782-9.668-36.208-24.354-51.964-8.931-9.692-19.704-15.791-32.434-18.784-12.729-2.831-24.791-3.844-36.277-3.28-13.374 0.622-27.093 3.143-41.088 7.597-8.932 2.543-17.771 1.944-26.725-1.772-6.998-2.682-13.535-8.506-19.566-17.725-6.008-9.219-11.487-19.497-16.229-30.523a192.41 192.41 0 0 1-11.003-34.378c-2.532-11.774-3.13-21.614-1.864-29.199 1.864-13.983 8.241-22.938 19.037-26.644 19.128-7.724 36.323-20.246 51.584-37.82 15.261-17.413 22.95-37.083 22.95-58.663 0-22.329-7.688-41.688-22.95-58.204-15.261-16.619-32.456-28.669-51.584-36.335-5.732-1.945-10.474-6.549-14.295-13.857-3.798-7.297-5.732-14.813-5.732-22.397 0-8.264 1.266-17.506 3.798-27.691 2.601-10.209 5.893-20.026 10.059-29.648 4.167-9.518 8.931-18.3 14.294-26.195 5.433-7.965 11.325-13.834 17.702-17.713 5.064-3.2 9.99-4.466 14.755-3.798 4.834 0.598 10.059 1.945 15.768 3.798 19.151 7.666 39.017 10.047 59.71 7.228 20.694-2.912 38.948-11.993 54.854-27.254 7.688-7.665 13.259-17.057 16.757-28.141 3.499-11.175 5.755-22.179 6.629-32.986 0.967-10.784 0.967-20.693 0-29.544-0.875-8.943-1.727-15.342-2.394-19.14-1.243-3.787-2.371-8.252-3.337-13.397-0.898-5.064-0.438-9.518 1.52-13.328 3.774-8.931 10.611-16.746 20.463-23.363 9.875-6.71 20.51-12.292 31.996-16.758 11.463-4.466 22.627-7.815 33.423-10.048 10.795-2.164 19.428-3.28 25.758-3.28 8.264 0 14.824 2.682 19.565 8.114 4.765 5.363 8.126 10.945 10.059 16.677 6.998 17.195 18.461 32.318 34.391 45.336 15.86 13.097 34.712 19.577 56.281 19.577 22.352 0 42.078-6.181 59.251-18.61 17.148-12.419 29.279-28.129 36.254-47.27 2.555-5.064 6.492-10.347 11.924-15.71 5.432-5.433 11.026-8.114 16.757-8.114 8.862 0 18.623 1.278 29.119 3.798 10.497 2.532 20.764 6.031 31.03 10.497 10.128 4.465 19.473 10.208 28.129 17.207 8.654 6.986 15.491 14.663 20.556 22.915 3.13 5.064 4.143 10.658 2.831 16.678-1.197 6.031-2.532 10.358-3.867 12.878-8.195 18.461-10.727 37.901-7.62 58.295 3.27 20.314 12.546 38.188 27.715 53.449 15.354 15.262 34.092 23.675 56.281 25.321 22.328 1.542 43.022-2.094 62.082-11.026 5.201-3.2 11.325-4.466 18.622-3.798 7.458 0.598 13.535 3.499 18.599 8.551 9.669 8.942 18.001 22.489 25.321 40.582 7.297 18.162 12.361 36.473 14.869 54.935 1.197 10.807-0.437 19.29-5.201 25.32-4.903 6.02-9.829 9.967-14.894 11.912-19.658 6.998-36.623 19.278-50.619 36.772-13.972 17.575-20.992 37.371-20.992 59.7 0 21.58 5.962 40.513 17.725 56.729 11.739 16.239 27.093 27.853 46.291 34.861 4.488 2.647 8.194 5.203 11.463 7.724 6.997 5.651 11.785 12.959 14.294 21.879z m-443.985 85.895c28.658 0 55.683-5.341 81.142-16.205 25.458-10.704 47.603-25.758 66.409-44.807 18.761-19.07 33.492-41.249 44.356-66.397 10.888-25.193 16.251-51.965 16.251-80.727 0-28.578-5.363-55.452-16.251-80.623-10.864-25.148-25.596-47.108-44.356-65.88-18.807-18.749-40.951-33.573-66.409-44.357-25.459-10.876-52.483-16.24-81.142-16.24-28.635 0-55.521 5.363-80.68 16.24-25.183 10.784-47.074 25.608-65.903 44.357-18.737 18.772-33.584 40.731-44.357 65.88-10.796 25.171-16.228 52.045-16.228 80.623 0 28.762 5.432 55.533 16.228 80.727 10.773 25.148 25.62 47.327 44.357 66.397 18.83 19.049 40.72 34.103 65.903 44.807 25.158 10.864 52.044 16.205 80.68 16.205z" p-id="7463" fill="#ffffff"></path></svg>