<?xml version="1.0" standalone="no"?><!DOCTYPE svg PUBLIC "-//W3C//DTD SVG 1.1//EN" "http://www.w3.org/Graphics/SVG/1.1/DTD/svg11.dtd"><svg t="1534744922434" class="icon" style="" viewBox="0 0 1024 1024" version="1.1" xmlns="http://www.w3.org/2000/svg" p-id="10906" xmlns:xlink="http://www.w3.org/1999/xlink" width="27" height="27"><defs><style type="text/css"></style></defs><path d="M807.241143 909.202286c-11.776 20.260571-33.645714 32.877714-57.051429 32.877714H246.601143a65.828571 65.828571 0 0 1-56.795429-32.329143l-101.888-181.76-14.262857 8.045714 14.738286-9.618285c0.036571 0 0.219429-0.073143 0.512-0.073143H274.651429a18.285714 18.285714 0 0 1 18.285714 18.285714v15.36c0 55.222857 44.909714 100.169143 100.169143 100.169143h239.250285c55.259429 0 100.205714-44.946286 100.205715-100.205714a18.285714 18.285714 0 0 1 18.249143-18.249143h153.6l-97.170286 167.497143z m201.764571-255.414857L911.36 92.379429A111.250286 111.250286 0 0 0 801.572571 0H183.698286c-22.601143 0-40.96 18.358857-40.96 40.96 0 22.601143 18.358857 40.96 40.96 40.96h617.874285c14.409143 0 26.660571 10.313143 29.110858 24.502857l96.182857 553.362286H750.811429c-55.222857 0-100.205714 44.982857-100.205715 100.205714a18.285714 18.285714 0 0 1-18.249143 18.249143H393.142857a18.285714 18.285714 0 0 1-18.285714-18.285714v-15.36c0-55.222857-44.946286-100.169143-100.169143-100.169143H88.941714c-29.805714 0-56.576 15.36-71.643428 41.069714a82.249143 82.249143 0 0 0-0.768 82.578286l102.180571 182.272A148.370286 148.370286 0 0 0 246.637714 1024h503.515429a148.406857 148.406857 0 0 0 127.926857-73.654857l112.566857-193.974857a152.502857 152.502857 0 0 0 18.358857-102.582857zM139.264 442.368h276.626286l-74.898286 74.898286a40.740571 40.740571 0 0 0-11.995429 28.964571c0 10.971429 4.278857 21.211429 11.995429 28.928 7.753143 7.753143 18.029714 12.032 28.964571 12.032 10.971429 0 21.211429-4.278857 28.964572-12.032l173.787428-173.750857-173.787428-173.787429a41.947429 41.947429 0 0 0-57.929143 0 40.740571 40.740571 0 0 0-11.995429 28.964572c0 10.971429 4.278857 21.211429 11.995429 28.964571l74.934857 74.898286-274.102857 0.073143c-6.144-0.365714-59.904-5.193143-59.904-55.369143a40.996571 40.996571 0 0 0-81.92 0c0 101.778286 90.441143 134.217143 139.264 137.216z" p-id="10907" fill="#ffffff"></path></svg>