<?xml version="1.0" encoding="utf-8"?>
<!-- Generator: Adobe Illustrator 16.0.0, SVG Export Plug-In . SVG Version: 6.00 Build 0)  -->
<!DOCTYPE svg PUBLIC "-//W3C//DTD SVG 1.1//EN" "http://www.w3.org/Graphics/SVG/1.1/DTD/svg11.dtd">
<svg version="1.1" id="图层_1" xmlns="http://www.w3.org/2000/svg" xmlns:xlink="http://www.w3.org/1999/xlink" x="0px" y="0px"
	 width="27px" height="27px" viewBox="0 0 27 27" enable-background="new 0 0 27 27" xml:space="preserve">
<path fill="#FFFFFF" d="M25.829,0.153c-0.18-0.18-0.449-0.18-0.629-0.09l-8.26,3.412c-0.809,0.27-2.064,1.078-2.064,2.693V9.49
	h-2.604V6.168c0-1.616-1.347-2.424-2.065-2.693L1.857,0.063c-0.18-0.09-0.449-0.09-0.629,0.09C0.959,0.242,0.87,0.512,0.87,0.781
	V26.1c0,0.27,0.18,0.539,0.359,0.627c0.09,0.092,0.27,0.18,0.36,0.18c0.089,0,0.269,0,0.359-0.088c0.09,0,6.375-3.682,8.08-4.49
	c2.245-0.988,2.155-3.232,2.155-3.232v-2.424h2.604v2.424c0,0.092-0.09,2.244,2.154,3.322c1.707,0.809,8.08,4.488,8.08,4.488
	c0.09,0.09,0.268,0.09,0.359,0.09c0.09,0,0.27,0,0.357-0.09c0.271-0.088,0.359-0.359,0.359-0.627V0.781
	C26.187,0.512,26.097,0.242,25.829,0.153z M10.746,19.096c0,0,0.09,1.258-1.257,1.797c-1.347,0.627-5.207,2.783-7.093,3.949V1.859
	l7.272,3.052c0,0,0.987,0.359,0.987,1.257V9.49H5.269c-0.449,0-0.718,0.359-0.718,0.718c0,0.449,0.359,0.719,0.718,0.719h5.387v4.13
	H5.269c-0.269,0-0.538,0.18-0.718,0.449c0,0.268,0,0.539,0.18,0.807l2.155,2.693c0.179,0.182,0.359,0.27,0.628,0.27
	c0.18,0,0.359-0.088,0.449-0.18c0.359-0.27,0.359-0.717,0.09-1.076l-1.167-1.438h3.86V19.096z M12.182,15.057v-4.13h2.604v4.13
	H12.182z M24.661,24.842c-1.885-1.076-5.746-3.322-7.094-3.859c-1.256-0.539-1.256-1.707-1.256-1.887v-2.424h5.387
	c0.449,0,0.719-0.359,0.719-0.719c0-0.447-0.359-0.717-0.719-0.717h-5.387v-4.13h5.387c0.27,0,0.539-0.179,0.719-0.449
	c0.09-0.269,0.09-0.539-0.09-0.808l-2.154-2.693c-0.271-0.359-0.719-0.359-1.076-0.09c-0.361,0.27-0.361,0.718-0.092,1.077
	l1.168,1.437h-3.861V6.168c0-0.898,0.896-1.257,1.078-1.257l7.271-2.962V24.842z"/>
</svg>
