<?xml version="1.0" standalone="no"?><!DOCTYPE svg PUBLIC "-//W3C//DTD SVG 1.1//EN" "http://www.w3.org/Graphics/SVG/1.1/DTD/svg11.dtd"><svg t="1533777233101" class="icon" style="" viewBox="0 0 1024 1024" version="1.1" xmlns="http://www.w3.org/2000/svg" p-id="4382" xmlns:xlink="http://www.w3.org/1999/xlink" width="35" height="35"><defs><style type="text/css"></style></defs><path d="M512.512 322.048c-69.12 0-126.464 57.344-126.464 126.464s57.344 126.464 126.464 126.464c69.632 0 126.464-57.344 126.464-126.464s-56.832-126.464-126.464-126.464z m0 189.44c-37.888 0-62.976-25.088-62.976-62.976s25.088-62.976 62.976-62.976 62.976 25.088 62.976 62.976c0 37.376-25.088 62.976-62.976 62.976z" fill="#ffffff" p-id="4383"></path><path d="M891.392 190.464h-129.024c-27.648-110.08-132.608-189.44-249.856-189.44-115.2 0-215.04 75.776-249.856 189.44H133.632C61.44 190.464 2.048 249.344 2.048 322.048v568.32c0 72.192 58.88 131.584 131.584 131.584h757.76c72.192 0 131.584-58.88 131.584-131.584v-568.32c-0.512-72.192-59.392-131.584-131.584-131.584z m-548.864 0c26.624-70.656 92.672-116.224 169.984-116.224s142.848 45.568 169.984 116.224H342.528z m548.864 441.856h-757.76c-28.672 0-57.856-29.184-57.856-57.856V322.048c0-28.672 29.184-57.856 57.856-57.856h757.76c28.672 0 57.856 29.184 57.856 57.856v252.416c0 28.672-29.184 57.856-57.856 57.856zM75.264 691.2c18.432 10.24 36.352 15.36 57.856 15.36h757.76c21.504 0 39.936-4.608 57.856-15.36v199.68c0 28.672-29.184 57.856-57.856 57.856H133.12c-28.672 0-57.856-29.184-57.856-57.856v-199.68z" fill="#ffffff" p-id="4384"></path></svg>