<?xml version="1.0" encoding="utf-8"?>
<!-- Generator: Adobe Illustrator 16.0.0, SVG Export Plug-In . SVG Version: 6.00 Build 0)  -->
<!DOCTYPE svg PUBLIC "-//W3C//DTD SVG 1.1//EN" "http://www.w3.org/Graphics/SVG/1.1/DTD/svg11.dtd">
<svg version="1.1" id="图层_1" xmlns="http://www.w3.org/2000/svg" xmlns:xlink="http://www.w3.org/1999/xlink" x="0px" y="0px"
	 width="27.844px" height="27px" viewBox="0 0 27.844 27" enable-background="new 0 0 27.844 27" xml:space="preserve">
<path fill="#FFFFFF" d="M21.428,3.828c0-0.671-0.544-1.215-1.215-1.215h-0.475c-0.094,0.033-0.193,0.055-0.299,0.055
	c-0.488,0-0.884-0.396-0.884-0.883c0-0.488,0.396-0.884,0.884-0.884c0.105,0,0.205,0.021,0.299,0.055h0.916
	c1.342,0,2.43,1.088,2.43,2.43v4.96c-0.531-0.222-1.086-0.394-1.656-0.527V3.828z M16.347,3.552c-0.487,0-0.884-0.396-0.884-0.884
	V0.901c0-0.488,0.396-0.883,0.884-0.884c0.487,0,0.884,0.396,0.884,0.884v1.767C17.23,3.156,16.834,3.551,16.347,3.552z
	 M11.487,3.552c-0.488,0-0.883-0.396-0.883-0.884V0.901c0-0.488,0.396-0.884,0.883-0.884c0.488,0,0.883,0.396,0.884,0.884v1.767
	C12.37,3.156,11.975,3.551,11.487,3.552z M2.43,24.04C1.088,24.04,0,22.953,0,21.61V3.386c0-1.342,1.088-2.43,2.43-2.43h0.806
	C3.33,0.922,3.429,0.901,3.535,0.901c0.488,0,0.883,0.396,0.883,0.883S4.022,2.667,3.535,2.668c-0.105,0-0.205-0.022-0.298-0.055
	H2.872c-0.671,0-1.215,0.543-1.215,1.215v17.34c0,0.672,0.544,1.215,1.215,1.215l0,0h6.416c0.254,0.581,0.555,1.137,0.906,1.657
	H2.43L2.43,24.04z M6.627,3.552c-0.488,0-0.883-0.396-0.883-0.884V0.901c0-0.488,0.396-0.883,0.883-0.884
	c0.488,0,0.883,0.396,0.884,0.884v1.767C7.51,3.156,7.115,3.551,6.627,3.552z"/>
<path fill="#FFFFFF" d="M19.695,5.892c0,0.218-0.176,0.395-0.395,0.395l0,0H4.004c-0.218,0-0.395-0.177-0.395-0.395l0,0V5.744
	c0-0.218,0.177-0.395,0.395-0.395l0,0h15.296c0.219,0,0.396,0.177,0.396,0.395l0,0L19.695,5.892L19.695,5.892z M19.695,8.655
	c0,0.218-0.176,0.395-0.395,0.395l0,0H4.004c-0.218,0-0.395-0.177-0.395-0.395l0,0V8.507c0-0.218,0.177-0.395,0.395-0.395l0,0
	h15.296c0.219,0,0.396,0.177,0.396,0.395l0,0L19.695,8.655L19.695,8.655z M13.429,11.271H4.004c-0.218,0-0.395,0.177-0.395,0.395
	l0,0v0.148c0,0.218,0.177,0.395,0.395,0.395l0,0h8.436C12.746,11.871,13.076,11.557,13.429,11.271z M4.004,14.922
	c-0.218,0-0.395,0.178-0.395,0.395v0.148c0,0.219,0.177,0.395,0.395,0.395l0,0h6.452c0.084-0.318,0.187-0.631,0.306-0.938H4.004
	L4.004,14.922z M4.004,18.229c-0.218,0-0.395,0.176-0.395,0.395l0,0v0.148c0,0.218,0.177,0.395,0.395,0.395l0,0h6.218
	c-0.037-0.312-0.056-0.625-0.06-0.938H4.004L4.004,18.229z M19.689,18.838l-0.172,0.264C19.609,19.041,19.672,18.945,19.689,18.838z
	"/>
<path fill="#FFFFFF" d="M18.998,9.295c-2.111,0-4.049,0.741-5.569,1.976c-0.353,0.287-0.684,0.6-0.989,0.938
	c-0.719,0.795-1.288,1.715-1.678,2.713c-0.12,0.307-0.222,0.62-0.306,0.938c-0.196,0.742-0.295,1.505-0.295,2.271
	c0,0.033,0.001,0.064,0.001,0.098c0.003,0.316,0.023,0.629,0.06,0.938c0.512,4.393,4.245,7.801,8.776,7.801
	c4.879,0,8.836-3.955,8.836-8.836C27.834,13.251,23.878,9.295,18.998,9.295z M23.699,15.934l-4.295,6.551
	c-0.001,0.002-0.004,0.002-0.006,0.004c-0.031,0.049-0.052,0.102-0.094,0.144c-0.346,0.345-0.904,0.345-1.25,0l-3.124-3.124
	c-0.345-0.346-0.345-0.904,0-1.25c0.345-0.345,0.905-0.345,1.25,0l0,0l0.907,0.908l1.441,1.441l0.987-1.506l0.173-0.264l2.619-3.993
	c0.3-0.384,0.855-0.452,1.239-0.151h0.001C23.933,14.994,24,15.549,23.699,15.934L23.699,15.934z"/>
</svg>
