<?xml version="1.0" encoding="utf-8"?>
<!-- Generator: Adobe Illustrator 16.0.0, SVG Export Plug-In . SVG Version: 6.00 Build 0)  -->
<!DOCTYPE svg PUBLIC "-//W3C//DTD SVG 1.1//EN" "http://www.w3.org/Graphics/SVG/1.1/DTD/svg11.dtd">
<svg version="1.1" id="图层_1" xmlns="http://www.w3.org/2000/svg" xmlns:xlink="http://www.w3.org/1999/xlink" x="0px" y="0px"
	 width="27px" height="27px" viewBox="0 0 27 27" enable-background="new 0 0 27 27" xml:space="preserve">
<path fill="#FFFFFF" d="M23.892,9.677L23.892,9.677V3.852C23.892,1.73,22.157,0,20.02,0H4.623C2.488,0,0.749,1.732,0.749,3.868
	v19.264C0.749,25.271,2.482,27,4.62,27h3.782v-1.929H4.62c-1.074,0-1.942-0.868-1.942-1.939V3.868c0-1.068,0.873-1.939,1.945-1.939
	H20.02c1.073,0,1.943,0.867,1.943,1.923v5.825H23.892z M20.796,12.91L20.796,12.91h2.728L12.493,23.94l-1.363-1.362l1.914,0.229
	l-0.215,1.786c-0.042,0.349,0.028,0.417,0.376,0.375l1.786-0.214l0.229,1.914l-1.364-1.364l11.032-11.03v2.728L20.796,12.91z
	 M22.16,11.547l4.091,4.092L15.22,26.669l-1.784,0.215c-1.583,0.191-2.714-0.926-2.521-2.521l0.215-1.784L22.16,11.547L22.16,11.547
	z M7.499,7.714h9.643c0.532,0,0.965-0.432,0.965-0.964s-0.433-0.964-0.965-0.964H7.499c-0.532,0-0.964,0.432-0.964,0.964
	S6.967,7.714,7.499,7.714L7.499,7.714z M7.499,13.5h7.714c0.533,0,0.965-0.432,0.965-0.964s-0.432-0.964-0.965-0.964H7.499
	c-0.532,0-0.964,0.432-0.964,0.964S6.967,13.5,7.499,13.5L7.499,13.5z M7.499,19.286h1.929c0.532,0,0.964-0.433,0.964-0.965
	s-0.432-0.964-0.964-0.964H7.499c-0.532,0-0.964,0.432-0.964,0.964S6.967,19.286,7.499,19.286L7.499,19.286z"/>
</svg>
