<?xml version="1.0" encoding="utf-8"?>
<!-- Generator: Adobe Illustrator 16.0.0, SVG Export Plug-In . SVG Version: 6.00 Build 0)  -->
<!DOCTYPE svg PUBLIC "-//W3C//DTD SVG 1.1//EN" "http://www.w3.org/Graphics/SVG/1.1/DTD/svg11.dtd">
<svg version="1.1" id="图层_1" xmlns="http://www.w3.org/2000/svg" xmlns:xlink="http://www.w3.org/1999/xlink" x="0px" y="0px"
	 width="27px" height="27px" viewBox="0 0 27 27" enable-background="new 0 0 27 27" xml:space="preserve">
<path fill="#FFFFFF" d="M3.129,14.404V9.869c0-1.424,1.16-2.585,2.584-2.585h12.132v3.851c0,0.316,0.316,0.475,0.58,0.316
	l7.859-5.275c0.211-0.157,0.211-0.474,0-0.632l-7.859-5.327c-0.264-0.158-0.58,0-0.58,0.316v3.851H5.766
	c-3.06,0-5.486,2.479-5.486,5.485v4.535c0,0.791,0.633,1.425,1.424,1.425C2.496,15.829,3.129,15.195,3.129,14.404z M25.492,11.346
	c-0.79,0-1.424,0.633-1.424,1.424v4.535c0,1.425-1.16,2.586-2.585,2.586H9.352V16.04c0-0.316-0.315-0.475-0.58-0.316l-7.859,5.274
	c-0.211,0.157-0.211,0.475,0,0.634l7.859,5.274c0.264,0.157,0.58,0,0.58-0.317v-3.851h12.131c3.061,0,5.486-2.478,5.486-5.485
	v-4.536C26.97,11.979,26.337,11.346,25.492,11.346z"/>
</svg>
