<?xml version="1.0" standalone="no"?><!DOCTYPE svg PUBLIC "-//W3C//DTD SVG 1.1//EN"
        "http://www.w3.org/Graphics/SVG/1.1/DTD/svg11.dtd">
<svg t="1534745053126" class="icon" style="" viewBox="0 0 1024 1024" version="1.1" xmlns="http://www.w3.org/2000/svg"
     p-id="11779" xmlns:xlink="http://www.w3.org/1999/xlink" width="27" height="27">
    <defs>
        <style type="text/css"></style>
    </defs>
    <path d="M866.852571 631.478857c0 0-222.427429 4.790857-246.857143-23.698286-22.857143-8.557714-23.149714-111.762286-23.149714-111.762286s24.356571-61.659429 30.866286-77.677714c6.509714-16.018286 92.562286-110.043429 92.562286-201.289143C720.274286 97.170286 627.017143 0 512 0c-115.053714 0-208.274286 97.170286-208.274286 217.051429 0 91.209143 80.713143 184.283429 92.562286 201.289143 11.885714 17.005714 30.866286 78.994286 30.866286 78.994286s11.629714 80.713143-15.433143 102.546286c-11.227429 29.622857-254.573714 31.561143-254.573714 31.561143C80.457143 631.478857 18.285714 695.076571 18.285714 773.522286l0 109.348571 987.428571 0 0-109.348571C1005.714286 695.076571 943.542857 631.478857 866.852571 631.478857zM56.868571 1024l910.299429 0 0-112.310857L56.868571 911.689143 56.868571 1024z"
          p-id="11780" fill="#ffffff"></path>
</svg>