<?xml version="1.0" encoding="utf-8"?>
<!-- Generator: Adobe Illustrator 16.0.0, SVG Export Plug-In . SVG Version: 6.00 Build 0)  -->
<!DOCTYPE svg PUBLIC "-//W3C//DTD SVG 1.1//EN" "http://www.w3.org/Graphics/SVG/1.1/DTD/svg11.dtd">
<svg version="1.1" id="图层_1" xmlns="http://www.w3.org/2000/svg" xmlns:xlink="http://www.w3.org/1999/xlink" x="0px" y="0px"
	 width="27px" height="27px" viewBox="0 0 27 27" enable-background="new 0 0 27 27" xml:space="preserve">
<path fill="#FFFFFF" d="M17.285,24.224h8.322c0.765,0,1.385-0.619,1.385-1.383V2.084c0-0.764-0.62-1.384-1.385-1.384H15.571
	L13.5,2.772L11.428,0.7H1.392c-0.764,0-1.384,0.62-1.384,1.384v20.757c0,0.764,0.62,1.383,1.384,1.383h8.322
	c0.8,1.248,2.195,2.076,3.787,2.076C15.091,26.3,16.486,25.472,17.285,24.224z M13.5,24.224c-1.219,0-2.218-0.904-2.387-2.074H2.083
	V2.776h8.643l1.736,1.736v11.063c0,0.572,0.464,1.039,1.038,1.039c0.572,0,1.037-0.467,1.037-1.039V4.512l1.737-1.736h8.642v19.374
	h-9.03C15.718,23.319,14.72,24.224,13.5,24.224z"/>
</svg>
