<?xml version="1.0" standalone="no"?><!DOCTYPE svg PUBLIC "-//W3C//DTD SVG 1.1//EN" "http://www.w3.org/Graphics/SVG/1.1/DTD/svg11.dtd"><svg t="1552982038872" class="icon" style="" viewBox="0 0 1024 1024" version="1.1" xmlns="http://www.w3.org/2000/svg" p-id="1326" xmlns:xlink="http://www.w3.org/1999/xlink" width="135" height="135"><defs><style type="text/css"></style></defs><path d="M512.5 992H160c-52.9 0-96-43.1-96-96V128c0-52.9 43.1-96 96-96h640c52.9 0 96 43.1 96 96v255.1c0 17.7-14.3 32-32 32s-32-14.3-32-32V128c0-17.6-14.4-32-32-32H160c-17.6 0-32 14.4-32 32v768c0 17.6 14.4 32 32 32h352.5c17.7 0 32 14.3 32 32s-14.3 32-32 32z" fill="#ffffff" p-id="1327"></path><path d="M576 288H288c-17.7 0-32-14.3-32-32s14.3-32 32-32h288c17.7 0 32 14.3 32 32s-14.3 32-32 32zM576 448H288c-17.7 0-32-14.3-32-32s14.3-32 32-32h288c17.7 0 32 14.3 32 32s-14.3 32-32 32zM416 608H288c-17.7 0-32-14.3-32-32s14.3-32 32-32h128c17.7 0 32 14.3 32 32s-14.3 32-32 32zM768 992c-68.4 0-132.7-26.6-181-75-48.4-48.4-75-112.6-75-181s26.6-132.7 75-181c48.4-48.4 112.6-75 181-75s132.7 26.6 181 75c48.4 48.4 75 112.6 75 181s-26.6 132.7-75 181c-48.3 48.4-112.6 75-181 75z m0-448c-105.9 0-192 86.1-192 192s86.1 192 192 192 192-86.1 192-192-86.1-192-192-192z" fill="#ffffff" p-id="1328"></path><path d="M768 800c-17.7 0-32-14.3-32-32V640c0-17.7 14.3-32 32-32s32 14.3 32 32v128c0 17.7-14.3 32-32 32z" fill="#ffffff" p-id="1329"></path><path d="M864 800h-96c-17.7 0-32-14.3-32-32s14.3-32 32-32h96c17.7 0 32 14.3 32 32s-14.3 32-32 32z" fill="#ffffff" p-id="1330"></path></svg>