<?xml version="1.0" encoding="utf-8"?>
<!-- Generator: Adobe Illustrator 16.0.0, SVG Export Plug-In . SVG Version: 6.00 Build 0)  -->
<!DOCTYPE svg PUBLIC "-//W3C//DTD SVG 1.1//EN" "http://www.w3.org/Graphics/SVG/1.1/DTD/svg11.dtd">
<svg version="1.1" id="图层_1" xmlns="http://www.w3.org/2000/svg" xmlns:xlink="http://www.w3.org/1999/xlink" x="0px" y="0px"
	 width="27.027px" height="27px" viewBox="0 0 27.027 27" enable-background="new 0 0 27.027 27" xml:space="preserve">
<path fill="#FFFFFF" d="M19.042,8.59c0-0.678-0.549-1.227-1.227-1.227H6.771c-0.678,0-1.227,0.549-1.227,1.227
	s0.549,1.228,1.227,1.228h11.045C18.494,9.818,19.042,9.268,19.042,8.59z M6.771,12.266c-0.678,0-1.227,0.55-1.227,1.228V13.5
	c0,0.678,0.549,1.227,1.227,1.227h7.364c0.678,0,1.227-0.549,1.227-1.227v-0.006c0-0.678-0.549-1.228-1.227-1.228H6.771z
	 M7.384,24.545H6.157c-1.694,0-3.068-1.373-3.068-3.068V5.522c0-1.694,1.374-3.067,3.068-3.067h12.272
	c1.695,0,3.068,1.374,3.068,3.067V8.59c0,0.678,0.551,1.228,1.227,1.228c0.678,0,1.229-0.55,1.229-1.228V4.909
	c0-2.711-2.199-4.909-4.91-4.909H5.543C2.833,0,0.634,2.198,0.634,4.909V22.09c0,2.711,2.198,4.91,4.909,4.91h1.841
	c0.678,0,1.227-0.551,1.227-1.227C8.611,25.094,8.062,24.545,7.384,24.545z M25.328,13.331c-1.422-1.429-3.727-1.429-5.148,0
	l-7.948,7.849l0.007,0.008c-0.264,0.223-0.435,0.553-0.435,0.928v3.658c0,0.672,0.543,1.219,1.214,1.219l0,0h3.641
	c0.445,0,0.83-0.246,1.041-0.604l0.004,0.004l7.625-7.891C26.748,17.076,26.748,14.76,25.328,13.331z M23.611,16.779l-7.498,7.773
	H14.23v-1.914l7.664-7.584c0.475-0.475,1.242-0.475,1.717,0C24.085,15.531,24.085,16.305,23.611,16.779z M10.452,17.182H6.771
	c-0.678,0-1.227,0.549-1.227,1.227s0.549,1.229,1.227,1.229h3.682c0.678,0,1.228-0.551,1.228-1.229S11.13,17.182,10.452,17.182z"/>
</svg>
