<?xml version="1.0" encoding="utf-8"?>
<!-- Generator: Adobe Illustrator 16.0.0, SVG Export Plug-In . SVG Version: 6.00 Build 0)  -->
<!DOCTYPE svg PUBLIC "-//W3C//DTD SVG 1.1//EN" "http://www.w3.org/Graphics/SVG/1.1/DTD/svg11.dtd">
<svg version="1.1" id="图层_1" xmlns="http://www.w3.org/2000/svg" xmlns:xlink="http://www.w3.org/1999/xlink" x="0px" y="0px"
	 width="27px" height="27px" viewBox="0 0 27 27" enable-background="new 0 0 27 27" xml:space="preserve">
<path fill="#FFFFFF" d="M7.252,14.505h8.289c0.58,0,1.036-0.456,1.036-1.036c0-0.581-0.456-1.036-1.036-1.036H7.252
	c-0.581,0-1.036,0.456-1.036,1.036C6.216,14.049,6.672,14.505,7.252,14.505z M22.793,0H4.144C1.865,0,0,1.865,0,4.144v18.649
	c0,2.28,1.865,4.145,4.144,4.145h18.649c2.28,0,4.145-1.864,4.145-4.145V4.144C26.938,1.865,25.073,0,22.793,0z M24.865,22.793
	c0,1.14-0.933,2.072-2.072,2.072H4.144c-1.14,0-2.072-0.933-2.072-2.072V4.144c0-1.14,0.932-2.072,2.072-2.072h18.649
	c1.14,0,2.072,0.932,2.072,2.072V22.793z M19.686,6.216H7.252c-0.581,0-1.036,0.456-1.036,1.036s0.456,1.036,1.036,1.036h12.433
	c0.58,0,1.035-0.456,1.035-1.036S20.266,6.216,19.686,6.216z M17.613,18.649H7.252c-0.581,0-1.036,0.455-1.036,1.036l0,0
	c0,0.58,0.456,1.035,1.036,1.035h10.361c0.58,0,1.036-0.455,1.036-1.035l0,0C18.649,19.104,18.193,18.649,17.613,18.649z"/>
</svg>
