<?xml version="1.0" standalone="no"?><!DOCTYPE svg PUBLIC "-//W3C//DTD SVG 1.1//EN"
        "http://www.w3.org/Graphics/SVG/1.1/DTD/svg11.dtd">
<svg t="1534745868070" class="icon" style="" viewBox="0 0 1024 1024" version="1.1" xmlns="http://www.w3.org/2000/svg"
     p-id="14963" xmlns:xlink="http://www.w3.org/1999/xlink" width="27" height="27">
    <defs>
        <style type="text/css"></style>
    </defs>
    <path d="M234.24 206.1312a446.5664 446.5664 0 0 0-172.4416 340.992 34.56 34.56 0 1 0 69.12 1.8944A377.6512 377.6512 0 0 1 276.736 260.608a34.56 34.56 0 1 0-42.496-54.4768z m508.9792 55.1936a377.9072 377.9072 0 0 1 144.9472 286.208 34.56 34.56 0 1 0 69.0688-2.2016 446.8224 446.8224 0 0 0-171.3664-338.432 34.56 34.56 0 0 0-42.6496 54.4256z m-69.12 652.2368c-102.4 46.8992-219.3408 46.08-320.8192-2.2016a34.56 34.56 0 1 0-29.696 62.3616 446.72 446.72 0 0 0 379.2896 2.6624 34.56 34.56 0 0 0-28.7744-62.8224zM357.5808 152.1664A152.1664 152.1664 0 0 0 509.5424 304.128a152.1664 152.1664 0 0 0 151.9616-151.9616A152.1664 152.1664 0 0 0 509.5424 0.1536a152.1664 152.1664 0 0 0-151.9616 152.0128z m234.8544 0A82.944 82.944 0 0 1 509.5424 235.008a82.944 82.944 0 0 1-82.8416-82.8416 82.944 82.944 0 0 1 82.8416-82.8928 82.944 82.944 0 0 1 82.8928 82.8928z m-439.5008 468.5312A152.1664 152.1664 0 0 0 1.024 772.7104a152.1664 152.1664 0 0 0 151.9616 151.9616 152.1664 152.1664 0 0 0 151.9616-151.9616 152.1664 152.1664 0 0 0-151.9616-152.0128z m0 234.8544a82.944 82.944 0 0 1-82.8416-82.8416 82.944 82.944 0 0 1 82.8416-82.8928 82.944 82.944 0 0 1 82.8928 82.8928 82.944 82.944 0 0 1-82.8928 82.8416z m718.2336-233.7792a152.1664 152.1664 0 0 0-151.9616 152.0128 152.1664 152.1664 0 0 0 151.9616 151.9616 152.1664 152.1664 0 0 0 151.9616-151.9616 152.1664 152.1664 0 0 0-151.9616-152.0128z m0 234.8544a82.944 82.944 0 0 1-82.8416-82.8416 82.944 82.944 0 0 1 82.8416-82.8928 82.944 82.944 0 0 1 82.8928 82.8928 82.944 82.944 0 0 1-82.8928 82.8416z"
          p-id="14964" fill="#ffffff"></path>
</svg>