<?xml version="1.0" standalone="no"?><!DOCTYPE svg PUBLIC "-//W3C//DTD SVG 1.1//EN" "http://www.w3.org/Graphics/SVG/1.1/DTD/svg11.dtd"><svg t="1543810350801" class="icon" style="" viewBox="0 0 1024 1024" version="1.1" xmlns="http://www.w3.org/2000/svg" p-id="6424" xmlns:xlink="http://www.w3.org/1999/xlink" width="27" height="27"><defs><style type="text/css"></style></defs><path d="M144.9984 425.71093333h734.0032v441.82186667c0 19.6608-15.83786667 34.95253333-34.95253333 34.95253333H180.49706667c-19.6608 0-34.95253333-15.83786667-34.95253334-34.95253333V425.71093333z" fill="#ffffff" p-id="6425"></path><path d="M893.7472 153.1904c-14.19946667-14.19946667-31.67573333-21.2992-51.88266667-21.2992H181.58933333c-20.20693333 0-37.6832 7.09973333-51.88266666 21.2992-14.19946667 14.19946667-21.2992 31.67573333-21.2992 51.88266667v660.82133333c0 40.41386667 32.768 73.18186667 73.18186666 73.18186667h660.2752c20.20693333 0 37.6832-7.09973333 51.88266667-21.2992 14.19946667-14.19946667 21.2992-31.67573333 21.2992-51.88266667v-660.82133333c0.54613333-20.20693333-6.5536-37.13706667-21.2992-51.88266667z m-14.7456 712.704c0 20.20693333-16.384 36.59093333-36.59093333 36.59093333h-660.82133334c-20.20693333 0-36.59093333-16.384-36.59093333-36.59093333V205.6192c0-20.20693333 16.384-36.59093333 36.59093333-36.59093333h660.2752c20.20693333 0 36.59093333 16.384 36.59093334 36.59093333v660.2752z" fill="#ffffff" p-id="6426"></path><path d="M291.36213333 58.70933333h1.6384c9.8304 0 17.47626667 7.64586667 17.47626667 17.47626667v185.1392c0 9.8304-7.64586667 17.47626667-17.47626667 17.47626667h-1.6384c-9.8304 0-17.47626667-7.64586667-17.47626666-17.47626667V76.1856c-0.54613333-9.8304 7.64586667-17.47626667 17.47626666-17.47626667zM438.272 58.70933333h1.6384c9.8304 0 17.47626667 7.64586667 17.47626667 17.47626667v185.1392c0 9.8304-7.64586667 17.47626667-17.47626667 17.47626667h-1.6384c-9.8304 0-17.47626667-7.64586667-17.47626667-17.47626667V76.1856c-0.54613333-9.8304 7.64586667-17.47626667 17.47626667-17.47626667zM584.63573333 58.70933333h1.6384c9.8304 0 17.47626667 7.64586667 17.47626667 17.47626667v185.1392c0 9.8304-7.64586667 17.47626667-17.47626667 17.47626667h-1.6384c-9.8304 0-17.47626667-7.64586667-17.47626666-17.47626667V76.1856c0-9.8304 7.64586667-17.47626667 17.47626666-17.47626667zM731.5456 58.70933333h1.6384c9.8304 0 17.47626667 7.64586667 17.47626667 17.47626667v185.1392c0 9.8304-7.64586667 17.47626667-17.47626667 17.47626667h-1.6384c-9.8304 0-17.47626667-7.64586667-17.47626667-17.47626667V76.1856c0-9.8304 7.64586667-17.47626667 17.47626667-17.47626667z" fill="#ffffff" p-id="6427"></path></svg>